<svg width="220" height="246" viewBox="0 0 220 246" xmlns="http://www.w3.org/2000/svg"><title>Handpjrónasamband Íslands</title><g fill="none" fill-rule="evenodd"><g fill-rule="nonzero" fill="#000"><path d="M50.416 22.2c-13.327 4.295-25.05 14.972-29.738 26.875-3.825 9.695-3.7 22.826 0 32.52 2.962 7.61 15.424 21.72 19.003 21.72.99 0 3.95-2.82 6.42-6.257 4.81-6.75 4.81-6.995-2.1-10.922-1.23-.736-3.7-3.927-5.55-7.118-7.28-12.15-3.33-28.96 8.52-36.815 4.08-2.577 6.79-3.313 13.82-3.68C71.89 38.03 78.8 41.22 84.6 49.69c5.182 7.73 6.292 14.97 3.454 24.172-2.59 8.345-2.097 16.69 1.235 21.72l2.22 3.314 4.07-4.663c19.75-22.702 12.22-56.45-15.3-69.212-5.43-2.57-9.25-3.31-16.9-3.56-5.43-.12-11.23.13-12.96.74zm92.914.614c-12.34 4.05-20.854 11.29-27.27 23.193-2.96 5.768-3.332 7.61-3.332 19.267 0 11.29.37 13.622 2.962 18.408 3.208 5.89 9.87 14.726 11.228 14.726.494 0 1.85-2.087 2.962-4.786 2.344-5.155 2.22-13.377-.37-23.44-2.962-10.798 3.084-23.438 13.82-29.083 6.91-3.56 18.755-3.81 25.418-.37 17.892 9.08 20.236 34.24 4.195 46.14l-5.183 3.93 4.566 6.25c2.468 3.43 5.306 6.26 6.17 6.26 3.332 0 13.943-11.54 17.892-19.51 3.455-7.12 3.948-9.21 3.948-18.53 0-9.21-.493-11.42-3.825-18.41-4.56-9.57-12.21-17.31-21.34-21.72-8.02-3.93-23.44-5.03-31.83-2.33z"/><path d="M104.214 40.485c-.37.614.617 4.172 2.22 7.977l2.84 6.995 2.59-6.995c1.975-5.277 2.222-7.24 1.11-7.977-1.973-1.227-8.02-1.227-8.76 0zM75.217 56.07c-5.43 6.26-8.514 12.763-9.87 21.353C63 91.78 67.32 104.79 78.547 116.938c10.61 11.535 12.956 19.39 9.378 31.66-2.345 8.59-1.85 16.936 1.357 21.845l2.22 3.313 3.58-4.295c7.403-8.46 9.994-15.46 10.61-27.48.618-14.72-1.973-21.6-12.832-34.24-11.35-13.26-13.694-21.36-9.746-32.65.988-2.82 1.85-7.11 1.85-9.32 0-4.42-3.33-13.99-4.934-13.99-.494 0-2.715 1.97-4.813 4.3zm60.956-1.472c-2.962 4.54-3.58 13.008-1.358 19.143 4.32 12.03 1.85 21.48-9.13 33.87-10.242 11.42-12.957 18.41-12.957 32.52 0 10.19.37 12.52 3.332 18.41 1.85 3.68 5.182 8.59 7.527 10.8l4.195 4.05 2.098-4.78c1.604-3.56 2.097-6.62 1.604-11.41-.494-3.68-1.11-10.31-1.604-14.85-.987-10.8.493-14.72 9.624-24.91 4.196-4.66 8.885-11.41 10.49-14.97 4.194-9.2 4.934-20.98 1.85-30.68-2.345-7.36-10.365-20-12.71-20-.617 0-1.85 1.23-2.96 2.82z"/><path d="M58.436 112.275c-3.455 3.436-8.884 7.73-12.092 9.45l-5.8 3.067v30.188l6.293-3.436c6.417-3.436 19.866-16.69 26.283-25.893l3.455-5.15-3.95-4.42c-2.096-2.45-4.44-5.77-5.18-7.36-.742-1.59-1.73-2.94-2.1-2.94-.37 0-3.577 2.95-6.91 6.51zm93.16-4.05c-.74 1.473-3.33 4.786-5.8 7.486l-4.317 4.79 8.14 10.31c4.44 5.65 10.49 12.4 13.32 14.85 4.69 4.05 13.2 9.2 15.17 9.2.37 0 .49-6.75.37-14.97l-.37-14.97-6.17-3.56c-3.33-1.96-9.01-6.26-12.59-9.69-6.17-6.01-6.294-6.13-7.774-3.43zm-47.382 7.118c-.37.613.617 4.172 2.22 7.976l2.84 6.99 2.59-7c1.975-5.28 2.222-7.24 1.11-7.98-1.973-1.23-8.02-1.23-8.76 0zm-28.997 15.585c-11.598 13.13-13.82 32.52-5.676 48.596 1.61 3.068 5.68 8.59 9.01 12.27 8.52 9.328 10.37 13.378 11.11 25.28l.62 10.31 8.15-.37 8.15-.367-.247-10.676c-.494-14.35-3.21-21.23-13.696-33.87-11.352-13.49-13.45-20.98-9.502-32.15.99-2.82 1.85-7.36 1.85-9.94 0-4.66-3.33-13.37-5.054-13.37-.494 0-2.59 1.97-4.69 4.3zm61.08-1.596c-3.086 4.786-3.58 11.29-1.48 18.53 4.07 13.99 1.973 22.09-9.13 34.607-9.874 11.16-12.835 18.28-13.33 32.88l-.492 11.9h16.04l.864-9.57c1.11-13.38 2.09-15.71 11.1-26.02 13.08-14.98 16.78-29.09 11.84-44.92-2.47-8.1-10-20.128-12.47-20.128-.62 0-1.978 1.226-2.96 2.7zm21.1 26.138c.37 5.4.123 11.782-.618 14.236-1.11 4.295-.99 4.786 3.94 9.45 5.8 5.522 14.19 11.29 16.41 11.29 1.23 0 1.6-3.682 1.6-14.604V161.24l-6.54-3.683c-3.7-2.086-8.64-5.522-10.98-7.854l-4.32-4.05.49 9.818zm-99.7-6.012c-1.605 1.718-6.17 5.154-9.996 7.486l-7.15 4.418v14.48c0 8.1.5 14.603 1.11 14.603 1.73 0 15.18-9.326 18.39-12.64 2.59-2.7 2.72-3.313 1.36-9.45-.86-3.803-1.11-9.816-.62-14.357.5-4.295.62-7.73.37-7.73s-1.72 1.472-3.45 3.19zm-.37 35.956c-3.21 3.19-8.27 7.118-11.353 8.59l-5.43 2.7v30.68l6.293-3.314c6.417-3.56 18.88-15.83 25.05-24.79l3.454-5.153-3.94-4.418c-2.09-2.46-4.44-5.77-5.18-7.37-.74-1.6-1.72-2.95-2.09-2.95-.49 0-3.452 2.7-6.783 6.01zm94.393-2.7c-.864 1.84-3.085 5.277-5.06 7.73l-3.577 4.42 5.676 7.362c3.08 3.927 7.4 9.08 9.5 11.413 4.32 4.66 17.89 13.86 19.25 13 .49-.25.86-7 .74-14.97l-.13-14.36-6.17-3.56c-3.33-1.97-8.64-6.02-11.72-8.96-3.09-2.95-5.93-5.4-6.3-5.4-.37 0-1.36 1.47-2.22 3.31z"/></g><path d="M35.542.402h148.703c19.33 0 35 15.67 35 35v175.482c0 19.33-15.67 35-35 35H35.542c-19.33 0-35-15.67-35-35V35.402c0-19.33 15.67-35 35-35zM38 7C20.88 7 7 20.88 7 38v169.458c0 17.12 13.88 31 31 31h143.137c17.12 0 31-13.88 31-31V38c0-17.12-13.88-31-31-31H38z" fill="#FFF"/></g></svg>